<svg id="Layer_1" data-name="Layer 1" xmlns="http://www.w3.org/2000/svg" xmlns:xlink="http://www.w3.org/1999/xlink" viewBox="0 0 1440 1505.68"><defs><style>.cls-1{fill:#fff;}.cls-2{fill:url(#linear-gradient);}</style><linearGradient id="linear-gradient" x1="951.93" y1="1190.64" x2="951.93" gradientUnits="userSpaceOnUse"><stop offset="0" stop-color="#9a52ff"/><stop offset="1" stop-color="#ff52bf"/></linearGradient></defs><title>desktop-design</title><path class="cls-1" d="M1356.05,949.2l-118.34,71.17-778.25,468a120,120,0,0,1-60.07,17.25c-1.29,0-2.6,0-3.9,0A120.52,120.52,0,0,1,294,1447.22L0,958.46V683.1L649.48,292.49,878.32,154.86a120.6,120.6,0,0,1,165.51,41.19l353.41,587.64A120.6,120.6,0,0,1,1356.05,949.2Z"/><path class="cls-2" d="M1440,0V1190.43a120.27,120.27,0,0,1-100.84-44.53l-101.45-125.53L649.48,292.49,490.62,95.91A120.15,120.15,0,0,1,465.57,0Z"/></svg>